<svg width="128" height="128" viewBox="0 0 128 128" fill="none" xmlns="http://www.w3.org/2000/svg" role="img" aria-labelledby="bedrock-icon-title">
  <title id="bedrock-icon-title">Bedrock ERP icon</title>
  <defs>
    <linearGradient id="bedrock-icon-top" x1="20" y1="30" x2="111" y2="30" gradientUnits="userSpaceOnUse">
      <stop stop-color="#178BD6" />
      <stop offset="1" stop-color="#2C9FF5" />
    </linearGradient>
    <linearGradient id="bedrock-icon-mid" x1="20" y1="64" x2="111" y2="64" gradientUnits="userSpaceOnUse">
      <stop stop-color="#6CBCE8" />
      <stop offset="1" stop-color="#4DA4DA" />
    </linearGradient>
  </defs>
  <path d="M20 28L64 12L111 29L65 45L20 28Z" fill="url(#bedrock-icon-top)" />
  <path d="M20 28V60L45 71V39L20 28Z" fill="#0E4D94" />
  <path d="M45 39L65 45V76L45 71V39Z" fill="#0F5AA8" />
  <path d="M65 45L111 29V47L65 63V45Z" fill="#2E90DF" />
  <path d="M20 64L65 81L111 64V82L65 99L20 82V64Z" fill="url(#bedrock-icon-mid)" />
  <path d="M20 82L65 99V117L20 99V82Z" fill="#113F83" />
  <path d="M65 99L111 82V100L65 117V99Z" fill="#0E4F95" />
  <path d="M65 63L111 47V64L65 81V63Z" fill="#204D8E" fill-opacity="0.92" />
  <path d="M45 71L65 81V99L45 91V71Z" fill="#1B5EA8" fill-opacity="0.9" />
</svg>
