<svg width="540" height="128" viewBox="0 0 540 128" fill="none" xmlns="http://www.w3.org/2000/svg" role="img" aria-labelledby="bedrock-logo-title bedrock-logo-desc">
  <title id="bedrock-logo-title">Bedrock ERP logo</title>
  <desc id="bedrock-logo-desc">Bedrock symbol with BedRock ERP wordmark.</desc>
  <style>
    .bedrock-wordmark { fill: #123f84; }
    .bedrock-tagline { fill: #3b82c4; }
    @media (prefers-color-scheme: dark) {
      .bedrock-wordmark { fill: #D6E8FF; }
      .bedrock-tagline { fill: #8CC7FF; }
    }
  </style>
  <defs>
    <linearGradient id="logo-top" x1="22" y1="34" x2="113" y2="34" gradientUnits="userSpaceOnUse">
      <stop stop-color="#178BD6" />
      <stop offset="1" stop-color="#2C9FF5" />
    </linearGradient>
    <linearGradient id="logo-mid" x1="22" y1="66" x2="113" y2="66" gradientUnits="userSpaceOnUse">
      <stop stop-color="#6CBCE8" />
      <stop offset="1" stop-color="#4DA4DA" />
    </linearGradient>
  </defs>
  <path d="M22 32L66 16L113 33L67 49L22 32Z" fill="url(#logo-top)" />
  <path d="M22 32V62L47 73V43L22 32Z" fill="#0E4D94" />
  <path d="M47 43L67 49V78L47 73V43Z" fill="#0F5AA8" />
  <path d="M67 49L113 33V50L67 66V49Z" fill="#2E90DF" />
  <path d="M22 66L67 83L113 66V84L67 101L22 84V66Z" fill="url(#logo-mid)" />
  <path d="M22 84L67 101V118L22 101V84Z" fill="#113F83" />
  <path d="M67 101L113 84V101L67 118V101Z" fill="#0E4F95" />
  <path d="M67 66L113 50V66L67 83V66Z" fill="#204D8E" fill-opacity="0.92" />
  <g>
    <path class="bedrock-wordmark" d="M149.4 98V36.8H179.32C185.48 36.8 190.627 37.84 194.76 39.92C198.947 42 202.093 44.88 204.2 48.56C206.36 52.1867 207.44 56.3467 207.44 61.04C207.44 64.9867 206.627 68.5333 205 71.68C203.373 74.7733 200.973 77.28 197.8 79.2C194.627 81.0667 190.733 82 186.12 82H161.28V69.76H183.88C186.307 69.76 188.293 69.4667 189.84 68.88C191.44 68.2933 192.627 67.4133 193.4 66.24C194.173 65.0667 194.56 63.5733 194.56 61.76C194.56 59.9467 194.173 58.4533 193.4 57.28C192.627 56.1067 191.44 55.2267 189.84 54.64C188.293 54.0533 186.307 53.76 183.88 53.76H164.92V98H149.4ZM214.412 98V36.8H253.972V49.52H229.932V61.88H251.172V74.32H229.932V85.28H254.932V98H214.412ZM290.961 98V36.8H316.121C322.601 36.8 328.174 38.04 332.841 40.52C337.508 42.9467 341.108 46.4133 343.641 50.92C346.174 55.4267 347.441 60.7733 347.441 66.96C347.441 73.2 346.148 78.5733 343.561 83.08C341.028 87.5867 337.374 91.08 332.601 93.56C327.828 96.04 322.148 97.52 315.561 98H290.961ZM306.481 84.88H314.521C318.041 84.88 321.001 84.2667 323.401 83.04C325.854 81.8133 327.721 79.8933 329.001 77.28C330.334 74.6667 331.001 71.2267 331.001 66.96C331.001 62.7467 330.334 59.36 329.001 56.8C327.721 54.1867 325.854 52.2933 323.401 51.12C321.001 49.8933 318.041 49.28 314.521 49.28H306.481V84.88ZM354.728 98V36.8H383.688C389.421 36.8 394.301 37.84 398.328 39.92C402.354 42 405.421 44.96 407.528 48.8C409.688 52.5867 410.768 56.9867 410.768 62C410.768 67.1733 409.608 71.6 407.288 75.28C405.021 78.9067 401.794 81.68 397.608 83.6C393.474 85.4667 388.621 86.4 383.048 86.4H363.928V74.08H380.568C383.208 74.08 385.354 73.7333 387.008 73.04C388.714 72.3467 389.954 71.3333 390.728 70C391.554 68.6133 391.968 66.6133 391.968 64C391.968 61.3333 391.554 59.3067 390.728 57.92C389.954 56.5333 388.714 55.4933 387.008 54.8C385.354 54.1067 383.208 53.76 380.568 53.76H370.248V98H354.728ZM397.328 70.32L412.608 98H395.688L380.728 70.32H397.328ZM436.587 99.04C431.281 99.04 426.694 97.9467 422.827 95.76C419.014 93.5733 416.067 90.48 413.987 86.48C411.961 82.4267 410.947 77.68 410.947 72.24C410.947 66.7467 411.961 62 413.987 58C416.067 53.9467 419.014 50.8267 422.827 48.64C426.694 46.4533 431.281 45.36 436.587 45.36C441.894 45.36 446.454 46.4533 450.267 48.64C454.134 50.8267 457.081 53.9467 459.107 58C461.187 62 462.227 66.7467 462.227 72.24C462.227 77.68 461.187 82.4267 459.107 86.48C457.081 90.48 454.134 93.5733 450.267 95.76C446.454 97.9467 441.894 99.04 436.587 99.04ZM436.667 86.64C438.987 86.64 440.881 85.92 442.347 84.48C443.814 82.9867 444.881 81.0133 445.547 78.56C446.214 76.0533 446.547 73.2533 446.547 70.16C446.547 67.0667 446.214 64.2933 445.547 61.84C444.881 59.3333 443.814 57.36 442.347 55.92C440.881 54.4267 438.987 53.68 436.667 53.68C434.241 53.68 432.241 54.4267 430.667 55.92C429.147 57.36 428.027 59.3333 427.307 61.84C426.641 64.2933 426.307 67.0667 426.307 70.16C426.307 73.2533 426.641 76.0533 427.307 78.56C428.027 81.0133 429.147 82.9867 430.667 84.48C432.241 85.92 434.241 86.64 436.667 86.64ZM488.709 99.04C483.295 99.04 478.655 97.92 474.789 95.68C470.922 93.3867 467.962 90.24 465.909 86.24C463.855 82.24 462.829 77.6533 462.829 72.48C462.829 67.2 463.882 62.5867 465.989 58.64C468.149 54.64 471.175 51.5467 475.069 49.36C478.962 47.12 483.549 46 488.829 46C493.469 46 497.575 46.8533 501.149 48.56C504.775 50.2667 507.682 52.6933 509.869 55.84C512.109 58.9333 513.429 62.5867 513.829 66.8H499.429C498.789 64.16 497.735 62.0533 496.269 60.48C494.855 58.8533 492.989 58.04 490.669 58.04C488.669 58.04 486.935 58.6267 485.469 59.8C484.055 60.92 482.962 62.5867 482.189 64.8C481.469 67.0133 481.109 69.7333 481.109 72.96C481.109 76.24 481.469 79 482.189 81.24C482.909 83.48 483.989 85.1733 485.429 86.32C486.869 87.4667 488.615 88.04 490.669 88.04C492.189 88.04 493.549 87.7067 494.749 87.04C495.949 86.3733 496.949 85.4 497.749 84.12C498.602 82.84 499.162 81.3067 499.429 79.52H513.829C513.375 83.68 512.082 87.3333 509.949 90.48C507.815 93.6267 504.949 96.08 501.349 97.84C497.749 98.96 493.535 99.36 488.709 99.04ZM518.041 98V36.8H533.561V68.16H534.521L557.721 46.8H575.321L550.241 69.68L575.721 98H557.481L539.241 77.52L533.561 82.72V98H518.041Z"/>
    <text x="151" y="117" class="bedrock-tagline" font-family="'DM Sans', Arial, sans-serif" font-size="15" font-weight="600" letter-spacing="0.14em">ERP</text>
  </g>
</svg>
